<?xml version="1.0" encoding="UTF-8"?>
<svg version="1.1" xmlns="http://www.w3.org/2000/svg" width="854" height="146">
<path d="M0 0 C7.59 0 15.18 0 23 0 C21.87626917 11.23730827 21.87626917 11.23730827 20.58984375 16.3046875 C20.18862305 17.92117187 20.18862305 17.92117187 19.77929688 19.5703125 C19.50150391 20.66085938 19.22371094 21.75140625 18.9375 22.875 C18.37995064 25.07968031 17.82638836 27.28537383 17.27734375 29.4921875 C17.03234131 30.45495605 16.78733887 31.41772461 16.53491211 32.40966797 C15.86517582 35.21206017 15.86517582 35.21206017 16 39 C16.845625 38.236875 17.69125 37.47375 18.5625 36.6875 C26.16868195 30.5041835 33.3588731 30.02030119 43 31 C48.4300394 32.42094489 52.06749148 35.29304379 55.03125 40.0390625 C61.98644882 54.11773107 55.73208513 72.50073065 52.70703125 86.9362793 C51.99254549 90.34809685 51.29214162 93.7625896 50.59375 97.17773438 C50.14663931 99.34391651 49.69875182 101.5099385 49.25 103.67578125 C49.03956055 104.69851639 48.82912109 105.72125153 48.61230469 106.77497864 C48.41540039 107.71073227 48.21849609 108.6464859 48.015625 109.6105957 C47.84321289 110.43662796 47.67080078 111.26266022 47.49316406 112.11372375 C47 114 47 114 46 115 C44.29227642 115.08713831 42.58101351 115.10700007 40.87109375 115.09765625 C39.83662109 115.09443359 38.80214844 115.09121094 37.73632812 115.08789062 C36.64771484 115.07951172 35.55910156 115.07113281 34.4375 115.0625 C32.7987793 115.05573242 32.7987793 115.05573242 31.12695312 115.04882812 C28.41791505 115.03699826 25.70898401 115.02051543 23 115 C24.08355277 107.83118594 25.43825722 100.73806137 26.9453125 93.6484375 C27.12100769 92.81733459 27.29670288 91.98623169 27.47772217 91.12994385 C28.20983771 87.6712608 28.94348307 84.21301099 29.69189453 80.7578125 C32.73041189 67.50733701 32.73041189 67.50733701 33 54 C32.34 53.01 31.68 52.02 31 51 C27.13245505 50.41003552 24.58608581 50.17120516 21.09375 51.99609375 C8.30078233 61.8994218 6.33464011 82.29325223 3.3125 97.1875 C2.85261394 99.43393141 2.39091173 101.67995773 1.92607117 103.92536926 C1.51106376 105.93276923 1.10168134 107.94132969 0.69262695 109.94995117 C0 113 0 113 -1 115 C-8.59 115 -16.18 115 -24 115 C-22.32816478 102.93189316 -19.78883708 91.08895866 -17.24609375 79.1796875 C-16.78025546 76.98590674 -16.31468894 74.79206825 -15.84938049 72.59817505 C-14.8791245 68.02720935 -13.90646095 63.45676525 -12.93188477 58.88671875 C-11.68176427 53.02420821 -10.43642074 47.16069576 -9.19268703 41.29682732 C-8.23415753 36.77906461 -7.27380454 32.26169118 -6.31282234 27.74444962 C-5.85270349 25.58113423 -5.39299879 23.41773072 -4.93371391 21.25423813 C-4.2940743 18.24317034 -3.65214314 15.23260054 -3.00952148 12.22216797 C-2.81989334 11.32765427 -2.6302652 10.43314056 -2.43489075 9.51152039 C-2.25970917 8.69318222 -2.08452759 7.87484406 -1.90403748 7.03170776 C-1.75269568 6.32129774 -1.60135389 5.61088772 -1.44542599 4.87895012 C-1 3 -1 3 0 0 Z " fill="#477BFF" transform="translate(745,17)"/>
<path d="M0 0 C1.175625 -0.01675781 2.35125 -0.03351562 3.5625 -0.05078125 C10.01023625 0.63062724 13.70668997 3.66141413 18 8.3125 C18.66 8.9725 19.32 9.6325 20 10.3125 C21.65 7.3425 23.3 4.3725 25 1.3125 C30.94 1.3125 36.88 1.3125 43 1.3125 C42.34138896 10.30320374 40.5383067 18.9565722 38.65625 27.75 C38.32338463 29.32267214 37.99091249 30.89542756 37.65881348 32.46826172 C36.96611524 35.74338788 36.26986557 39.01773089 35.57080078 42.29150391 C34.67411459 46.4913613 33.78465914 50.69270947 32.89759064 54.89460754 C32.21351159 58.13261543 31.52657672 61.37001184 30.83866882 64.60720825 C30.50946243 66.15725424 30.18093756 67.70744514 29.85310364 69.25778198 C29.39637875 71.41464439 28.93603531 73.57070162 28.47460938 75.7265625 C28.2133728 76.9532666 27.95213623 78.1799707 27.6829834 79.44384766 C27 82.3125 27 82.3125 26 84.3125 C19.73 84.3125 13.46 84.3125 7 84.3125 C7 81.6725 7 79.0325 7 76.3125 C6.5153125 76.78300781 6.030625 77.25351563 5.53125 77.73828125 C-1.65476093 84.41297987 -7.44275807 86.93152635 -17.32421875 86.58984375 C-23.19790238 85.98103859 -27.27751405 84.46340379 -31.3125 80.0625 C-39.2614705 69.82388039 -39.26363028 56.42154224 -37.71582031 44.0390625 C-35.18705716 28.7986883 -29.00630204 14.02293804 -16.4375 4.4375 C-11.39023365 0.83770405 -6.09548595 0.02005094 0 0 Z M-5.34765625 24.75 C-13.17110931 34.70277209 -15.10803589 48.01486226 -14 60.3125 C-13.0574985 63.26387613 -12.329174 64.1059141 -10 66.3125 C-6.16298751 67.847305 -4.44056488 67.47270541 -0.5625 66.0625 C7.97632948 60.48959138 11.12641361 50.25961717 13.34375 40.8359375 C14.73068199 33.38943362 14.69577743 28.01965164 11 21.3125 C4.69734133 17.11072756 -0.43687047 19.51182851 -5.34765625 24.75 Z " fill="#477BFF" transform="translate(540,47.6875)"/>
<path d="M0 0 C-0.61811534 4.55315948 -2.46765893 8.28459767 -4.5625 12.3125 C-4.89185547 12.95767578 -5.22121094 13.60285156 -5.56054688 14.26757812 C-6.36824255 15.84785228 -7.18337613 17.42432105 -8 19 C-8.72703125 18.72285156 -9.4540625 18.44570313 -10.203125 18.16015625 C-18.25052013 15.26103057 -27.63974139 11.96703347 -36.0625 15.1875 C-39.78851178 17.43503857 -39.78851178 17.43503857 -42 21 C-42.70875034 27.27750299 -42.00931387 29.90496656 -38 35 C-35.86743631 36.79337828 -33.58343485 38.29442557 -31.25 39.8125 C-21.65606101 46.40693461 -14.5332713 53.20993233 -12 65 C-10.88940409 74.85494303 -12.32725433 83.70448887 -18.1875 91.8125 C-25.15115655 100.09005401 -34.47071773 103.57746729 -45 105 C-57.10858854 105.62776331 -68.20957615 105.24708749 -79 99 C-80 98 -80 98 -80.11352539 95.95874023 C-80.10828857 95.08419189 -80.10305176 94.20964355 -80.09765625 93.30859375 C-80.09443359 92.36435547 -80.09121094 91.42011719 -80.08789062 90.44726562 C-80.07951172 89.45404297 -80.07113281 88.46082031 -80.0625 87.4375 C-80.05798828 86.44041016 -80.05347656 85.44332031 -80.04882812 84.41601562 C-80.03700007 81.94395151 -80.02051849 79.47200482 -80 77 C-75.36187638 78.50772823 -70.87269885 80.23790468 -66.3671875 82.09765625 C-59.22217711 84.82124932 -50.09577992 85.59501821 -42.875 82.75 C-39.20734296 80.52386841 -39.20734296 80.52386841 -37 77 C-36.43913229 71.85871261 -37.10787285 69.2043564 -40 65 C-41.89575519 63.00163553 -41.89575519 63.00163553 -44.0625 61.1875 C-44.85398437 60.49914062 -45.64546875 59.81078125 -46.4609375 59.1015625 C-48.98492874 57.01247437 -51.57714156 55.0419561 -54.1875 53.0625 C-60.67309126 47.92849385 -64.8276287 42.01123352 -67 34 C-67.95986873 22.66856265 -67.36826124 13.69054488 -59.9375 4.75 C-44.53019602 -11.27956989 -18.55318697 -9.60790039 0 0 Z " fill="#477BFF" transform="translate(414,29)"/>
<path d="M0 0 C7.9704656 5.65604003 12.13682436 11.54852593 14.3125 21 C16.58916937 35.65605907 14.06968769 52.44492759 6 65 C-1.62446048 74.95699141 -9.51406195 80.92433255 -22 83 C-32.7453518 84.00355222 -40.79484246 82.16111799 -50.3125 77.3125 C-56.07364699 72.35523399 -60.50560407 65.45622495 -61.20263672 57.76367188 C-61.3057667 55.15104562 -61.32887788 52.5521109 -61.3125 49.9375 C-61.30686035 49.00301025 -61.3012207 48.06852051 -61.29541016 47.10571289 C-61.03051249 31.93442023 -56.84906066 18.16714203 -46.203125 6.97265625 C-34.98470112 -3.0722091 -13.84297149 -8.13172589 0 0 Z M-32.28515625 24.7890625 C-37.28595637 33.72585359 -39.51580005 45.89466636 -38 56 C-35.94569469 60.03916931 -34.27773378 62.28890649 -30 64 C-24.80348257 64 -21.3067011 63.42077733 -17.37890625 59.70703125 C-9.23119175 49.62048384 -7.71953149 36.51554707 -9 24 C-10.59220869 20.01714366 -11.40449167 18.39700555 -15 16 C-23.20026644 14.7491119 -27.55971841 18.21079341 -32.28515625 24.7890625 Z " fill="#487BFF" transform="translate(311,51)"/>
<path d="M0 0 C4.4680258 4.05414552 7.7314895 8.28991725 8.3359375 14.390625 C8.42288734 22.98126909 8.27397423 29.33046607 2.26953125 35.890625 C-10.00583832 47.55345118 -26.93286544 48.27491295 -43 48 C-41.57373484 55.39907708 -41.57373484 55.39907708 -37.6875 61.6875 C-27.57792669 65.2858227 -18.31548131 62.9479521 -8.765625 59.09375 C-6 58 -6 58 -4 58 C-4 63.94 -4 69.88 -4 76 C-17.63882555 81.76288404 -33.31925461 85.33643145 -47.79296875 80.03515625 C-55.16020795 76.57972548 -60.67054452 72.60827376 -64 65 C-68.86038964 50.81384507 -66.5959395 34.07616102 -60.45703125 20.6171875 C-54.55532518 9.84015903 -46.29548592 1.53295053 -34.6875 -2.8125 C-24.26775865 -5.62340697 -9.19583751 -6.32098651 0 0 Z M-36.4375 22.5 C-38.4731664 25.65056817 -39.43182443 28.2905319 -40 32 C-30.65910349 32.2965364 -23.40732115 32.00677884 -16.3125 25.4375 C-14.31316287 23.24774981 -14.00553703 22.06506012 -13.75 19.0625 C-13.78782064 16.09887329 -13.78782064 16.09887329 -15 14.125 C-23.5479294 9.31678971 -31.64650315 15.65081834 -36.4375 22.5 Z " fill="#477BFF" transform="translate(484,52)"/>
<path d="M0 0 C16.17 0 32.34 0 49 0 C48.01 4.62 47.02 9.24 46 14 C42.69960824 15.47396137 39.39083309 16.93947971 36.00708008 18.21044922 C32.7934857 19.73809699 32.7934857 19.73809699 31.6862793 22.85595703 C31.44304932 24.06106934 31.19981934 25.26618164 30.94921875 26.5078125 C30.8019635 27.19375488 30.65470825 27.87969727 30.50299072 28.58642578 C30.16864883 30.15880272 29.84724982 31.73396558 29.53610229 33.31109619 C28.94495126 36.27610547 28.30782967 39.22902833 27.66430664 42.18310547 C26.15980503 49.11523221 24.70325622 56.05698074 23.25 63 C22.7385579 65.43234985 22.22684122 67.86464199 21.71484375 70.296875 C20.47339838 76.19725654 19.23566243 82.09840481 18 88 C21.63 89.98 25.26 91.96 29 94 C27.125 105.75 27.125 105.75 26 108 C9.83 108 -6.34 108 -23 108 C-22.01 103.38 -21.02 98.76 -20 94 C-11.01851852 89 -11.01851852 89 -6 89 C-5.84349976 87.21251343 -5.84349976 87.21251343 -5.68383789 85.38891602 C-4.94320317 78.75936751 -3.47060836 72.29050849 -2.05859375 65.77734375 C-1.76817374 64.42265452 -1.4781464 63.06788105 -1.18849182 61.71302795 C-0.43123953 58.17608345 0.33128337 54.64029616 1.0949707 51.10473633 C1.87579211 47.48523154 2.65153903 43.86463973 3.42773438 40.24414062 C4.94690406 33.16169678 6.47165255 26.08046968 8 19 C7.29875 18.731875 6.5975 18.46375 5.875 18.1875 C2.85164964 16.93872485 -0.07424036 15.46287982 -3 14 C-2.01 9.38 -1.02 4.76 0 0 Z " fill="#477BFF" transform="translate(62,24)"/>
<path d="M0 0 C18.48 0 36.96 0 56 0 C54.38130271 16.18697294 54.38130271 16.18697294 47.5625 23.5625 C46.46621131 24.79201192 45.37252129 26.02384515 44.28125 27.2578125 C43.72953125 27.87946289 43.1778125 28.50111328 42.609375 29.14160156 C40.1458865 31.98627305 37.85473079 34.95442514 35.5625 37.9375 C31.01978863 43.8165486 26.23375897 49.44969495 21.32641602 55.02709961 C20.80619873 55.61885986 20.28598145 56.21062012 19.75 56.8203125 C19.29109375 57.33867676 18.8321875 57.85704102 18.359375 58.39111328 C16.83113467 60.19986036 15.42075699 62.10565735 14 64 C28.85 64.495 28.85 64.495 44 65 C42 78 42 78 41 83 C21.2 83 1.4 83 -19 83 C-17.98655842 71.85214261 -16.97313151 67.86813147 -10 60 C-6.03559691 55.42691019 -2.20671473 50.78436447 1.5 46 C5.97499791 40.23600377 10.62741446 34.65718688 15.39453125 29.1328125 C18.39367412 25.52664671 21.18579598 21.75227203 24 18 C14.76 18 5.52 18 -4 18 C-3.2884375 14.101875 -3.2884375 14.101875 -2.5625 10.125 C-2.41498291 9.30789551 -2.26746582 8.49079102 -2.11547852 7.64892578 C-1.11111111 2.22222222 -1.11111111 2.22222222 0 0 Z " fill="#477BFF" transform="translate(189,49)"/>
<path d="M0 0 C18.81 0 37.62 0 57 0 C53.63090129 17.96852647 53.63090129 17.96852647 48.875 22.8125 C47.88172274 23.8700713 46.88955076 24.92868167 45.8984375 25.98828125 C45.16125488 26.7455249 45.16125488 26.7455249 44.40917969 27.51806641 C42.30081169 29.73528639 40.40961607 32.11125643 38.5 34.5 C35.19376088 38.56330282 31.83190609 42.57305394 28.4375 46.5625 C24.3541949 51.3621994 20.36876128 56.22728165 16.4609375 61.171875 C15 63 15 63 14 64 C28.85 64.495 28.85 64.495 44 65 C43 74 43 74 41 83 C21.2 83 1.4 83 -19 83 C-17.89728119 71.97281191 -16.55547185 67.38114336 -9.36328125 59.63671875 C-6.65334349 56.61323447 -4.17036659 53.46007336 -1.6875 50.25 C2.41809907 44.9619884 6.64359383 39.80395367 10.99072266 34.71313477 C15.40756362 29.53937227 19.70740194 24.2777845 24 19 C10.14 18.505 10.14 18.505 -4 18 C-2.68 12.06 -1.36 6.12 0 0 Z " fill="#477BFF" transform="translate(118,49)"/>
<path d="M0 0 C1 2 1 2 0.47094727 3.78759766 C0.17244873 4.48933105 -0.1260498 5.19106445 -0.43359375 5.9140625 C-0.9121582 7.05488281 -0.9121582 7.05488281 -1.40039062 8.21875 C-1.74263672 9.0128125 -2.08488281 9.806875 -2.4375 10.625 C-2.77587891 11.42679688 -3.11425781 12.22859375 -3.46289062 13.0546875 C-4.30166778 15.03939964 -5.14995245 17.02008875 -6 19 C-6.66644531 18.7834375 -7.33289063 18.566875 -8.01953125 18.34375 C-15.80492843 15.99179785 -23.58918932 14.08587461 -31.3125 17.4375 C-39.40476939 25.15338476 -43.01958819 34.09985389 -43.34423828 45.16186523 C-43.35946533 46.22642944 -43.35946533 46.22642944 -43.375 47.3125 C-43.38901855 47.99449463 -43.40303711 48.67648926 -43.41748047 49.37915039 C-43.37562545 53.74012116 -42.81441022 56.62639473 -40 60 C-34.77719324 62.91786559 -29.68483281 62.08390812 -24 61 C-21.25358243 60.07579681 -18.63805847 59.02767109 -15.99609375 57.83984375 C-14 57 -14 57 -12 57 C-12 63.6 -12 70.2 -12 77 C-25.20971353 81.99391609 -39.0619562 85.04882287 -52.6328125 79.25 C-60.18462909 75.26224206 -63.95315002 69.94447248 -67 62 C-70.94296184 47.28295772 -67.96390843 29.67322409 -60.75 16.5 C-54.4314778 6.64150236 -46.55808024 -0.20706244 -35.09838867 -3.55566406 C-23.95144922 -5.91603984 -10.28695413 -4.91906707 0 0 Z " fill="#477BFF" transform="translate(720,52)"/>
<path d="M0 0 C-1.16324485 7.84163878 -2.7547013 15.39592172 -5 23 C-5.845625 22.95359375 -6.69125 22.9071875 -7.5625 22.859375 C-17.4930889 22.49672282 -17.4930889 22.49672282 -26 27 C-35.54816094 37.52745949 -37.36088037 53.325969 -40.25 66.75 C-40.6165884 68.42981835 -40.98377185 70.10950697 -41.3515625 71.7890625 C-42.2423337 75.85772012 -43.12088093 79.92873985 -44 84 C-51.92 84 -59.84 84 -68 84 C-64.60885929 66.91869863 -61.13171498 49.8584283 -57.55078125 32.81591797 C-56.87003576 29.57199966 -56.19269474 26.3274067 -55.51688766 23.0824585 C-54.86347935 19.9501208 -54.20483236 16.81888479 -53.546875 13.6875 C-53.18441681 11.94267334 -53.18441681 11.94267334 -52.81463623 10.16259766 C-52.5906012 9.10218262 -52.36656616 8.04176758 -52.13574219 6.94921875 C-51.93986511 6.01424561 -51.74398804 5.07927246 -51.54217529 4.1159668 C-51 2 -51 2 -50 1 C-48.58429877 0.91348389 -47.164405 0.89295096 -45.74609375 0.90234375 C-44.46508789 0.90717773 -44.46508789 0.90717773 -43.15820312 0.91210938 C-41.81145508 0.92467773 -41.81145508 0.92467773 -40.4375 0.9375 C-39.53580078 0.94201172 -38.63410156 0.94652344 -37.70507812 0.95117188 C-35.47002411 0.96299756 -33.23500398 0.98093362 -31 1 C-31 4.63 -31 8.26 -31 12 C-30.21625 10.948125 -29.4325 9.89625 -28.625 8.8125 C-20.61677549 -0.32913912 -11.45814709 -0.68748883 0 0 Z " fill="#477BFF" transform="translate(655,48)"/>
</svg>
